0
SECTION
2
HEADER
9
$INSUNITS
70
4
9
$ACADVER
1
AC1014
9
$HANDSEED
5
FFFF
0
ENDSEC
0
SECTION
2
TABLES
0
TABLE
2
VPORT
5
8
100
AcDbSymbolTable
0
ENDTAB
0
TABLE
2
LTYPE
5
5
100
AcDbSymbolTable
0
LTYPE
5
14
100
AcDbSymbolTableRecord
100
AcDbLinetypeTableRecord
2
BYBLOCK
70
0
0
LTYPE
5
15
100
AcDbSymbolTableRecord
100
AcDbLinetypeTableRecord
2
BYLAYER
70
0
0
ENDTAB
0
TABLE
2
LAYER
5
2
100
AcDbSymbolTable
70
2
0
LAYER
5
50
100
AcDbSymbolTableRecord
100
AcDbLayerTableRecord
2
0
70
0
6
CONTINUOUS
0
ENDTAB
0
TABLE
2
STYLE
5
3
100
AcDbSymbolTable
70
1
0
STYLE
5
11
100
AcDbSymbolTableRecord
100
AcDbTextStyleTableRecord
2
STANDARD
70
0
0
ENDTAB
0
TABLE
2
VIEW
5
6
100
AcDbSymbolTable
70
0
0
ENDTAB
0
TABLE
2
UCS
5
7
100
AcDbSymbolTable
70
0
0
ENDTAB
0
TABLE
2
APPID
5
9
100
AcDbSymbolTable
70
2
0
APPID
5
12
100
AcDbSymbolTableRecord
100
AcDbRegAppTableRecord
2
ACAD
70
0
0
ENDTAB
0
TABLE
2
DIMSTYLE
5
A
100
AcDbSymbolTable
70
1
0
ENDTAB
0
TABLE
2
BLOCK_RECORD
5
1
100
AcDbSymbolTable
70
1
0
BLOCK_RECORD
5
1F
100
AcDbSymbolTableRecord
100
AcDbBlockTableRecord
2
*MODEL_SPACE
0
BLOCK_RECORD
5
1B
100
AcDbSymbolTableRecord
100
AcDbBlockTableRecord
2
*PAPER_SPACE
0
ENDTAB
0
ENDSEC
0
SECTION
2
BLOCKS
0
BLOCK
5
20
100
AcDbEntity
100
AcDbBlockBegin
2
*MODEL_SPACE
0
ENDBLK
5
21
100
AcDbEntity
100
AcDbBlockEnd
0
BLOCK
5
1C
100
AcDbEntity
100
AcDbBlockBegin
2
*PAPER_SPACE
0
ENDBLK
5
1D
100
AcDbEntity
100
AcDbBlockEnd
0
ENDSEC
0
SECTION
2
ENTITIES
0
LWPOLYLINE
5
100
100
AcDbEntity
8
0
100
AcDbPolyline
90
4
70
1
43
0.0
10
12.699999999999999
20
0
10
12.699999999999996
20
444.49999999999994
10
292.10000000000002
20
444.49999999999994
10
292.10000000000002
20
0
0
LWPOLYLINE
5
101
100
AcDbEntity
8
0
100
AcDbPolyline
90
11
70
1
43
0.0
10
1.1546319456101628e-13
20
1.7837047201951343e-14
10
-13.099999999999884
20
1.7763568394002505e-14
10
-13.099999999999907
20
76.20000000000006
10
-79.774999999999963
20
191.68448759465488
10
-13.099999999999932
20
203.4410890333919
10
-13.099999999999943
20
235.39999999999941
10
-79.775000000000063
20
350.88448759465439
10
-13.099999999999969
20
362.64108903339121
10
-13.099999999999969
20
387.34999999999985
10
-70.250000000000284
20
444.49999999999989
10
-2.6558565699368263e-13
20
444.49999999999994
0
LWPOLYLINE
5
102
100
AcDbEntity
8
0
100
AcDbPolyline
90
11
70
1
43
0.0
10
-110.00000000000027
20
564.49999999999977
10
-110.00000000000021
20
488.29999999999978
10
-43.325000000000188
20
372.81551240534503
10
-110.00000000000011
20
361.05891096660798
10
-110.00000000000011
20
329.10000000000048
10
-43.325000000000003
20
213.61551240534561
10
-110
20
201.85891096660882
10
-109.99999999999999
20
177.15000000000015
10
-52.849999999999739
20
120.00000000000016
10
-123.09999999999962
20
120.00000000000007
10
-123.10000000000025
20
564.49999999999977
0
LWPOLYLINE
5
103
100
AcDbEntity
8
0
100
AcDbPolyline
90
4
70
1
43
0.0
10
-12.700000000000138
20
457.19999999999993
10
-12.700000000000173
20
546.09999999999991
10
292.09999999999997
20
546.09999999999991
10
292.10000000000002
20
457.19999999999993
0
LWPOLYLINE
5
104
100
AcDbEntity
8
0
100
AcDbPolyline
90
4
70
1
43
0.0
10
-12.700000000000029
20
558.80000000000007
10
-12.700000000000067
20
692.14999999999975
10
292.09999999999991
20
692.14999999999975
10
292.09999999999997
20
558.80000000000007
0
LWPOLYLINE
5
105
100
AcDbEntity
8
0
100
AcDbPolyline
90
4
70
1
43
0.0
10
-12.700000000000887
20
704.85000000000036
10
-12.700000000000919
20
838.20000000000107
10
292.09999999999991
20
838.20000000000107
10
292.09999999999991
20
704.85000000000036
0
ENDSEC
0
SECTION
2
OBJECTS
0
DICTIONARY
5
C
100
AcDbDictionary
3
ACAD_GROUP
350
D
3
ACAD_MLINESTYLE
350
17
0
DICTIONARY
5
D
100
AcDbDictionary
0
DICTIONARY
5
1A
330
C
100
AcDbDictionary
0
DICTIONARY
5
17
100
AcDbDictionary
0
ENDSEC
0
EOF
